<svg width="17" height="17" viewBox="0 0 17 17" fill="none" xmlns="http://www.w3.org/2000/svg">

<path d="M8.61265 10.6608C9.6934 10.6608 10.5695 9.78471 10.5695 8.70395C10.5695 7.6232 9.6934 6.74707 8.61265 6.74707C7.53189 6.74707 6.65576 7.6232 6.65576 8.70395C6.65576 9.78471 7.53189 10.6608 8.61265 10.6608Z" fill="currentColor"/>

<path d="M15.9215 8.53736C15.3461 7.04898 14.3472 5.76182 13.0482 4.83498C11.7492 3.90813 10.2071 3.38223 8.61252 3.32227C7.01791 3.38223 5.47583 3.90813 4.17685 4.83498C2.87788 5.76182 1.87896 7.04898 1.30356 8.53736C1.2647 8.64485 1.2647 8.76255 1.30356 8.87003C1.87896 10.3584 2.87788 11.6456 4.17685 12.5724C5.47583 13.4993 7.01791 14.0252 8.61252 14.0851C10.2071 14.0252 11.7492 13.4993 13.0482 12.5724C14.3472 11.6456 15.3461 10.3584 15.9215 8.87003C15.9603 8.76255 15.9603 8.64485 15.9215 8.53736ZM8.61252 11.8836C7.98359 11.8836 7.36878 11.6971 6.84584 11.3477C6.32291 10.9983 5.91532 10.5017 5.67464 9.92061C5.43396 9.33955 5.37099 8.70017 5.49369 8.08332C5.61638 7.46647 5.91924 6.89986 6.36397 6.45514C6.80869 6.01042 7.3753 5.70756 7.99215 5.58486C8.60899 5.46216 9.24837 5.52514 9.82943 5.76582C10.4105 6.0065 10.9071 6.41408 11.2565 6.93702C11.606 7.45996 11.7925 8.07476 11.7925 8.7037C11.7912 9.54667 11.4557 10.3547 10.8596 10.9508C10.2636 11.5469 9.45549 11.8823 8.61252 11.8836Z" fill="currentColor"/>

</svg>